<?xml version="1.0" encoding="UTF-8" standalone="no"?>
<!-- Created with Inkscape (http://www.inkscape.org/) -->

<svg
   width="150.60146mm"
   height="89.614067mm"
   viewBox="0 0 150.60146 89.614067"
   version="1.1"
   id="svg5"
   inkscape:export-filename="dza.svg"
   inkscape:export-xdpi="96"
   inkscape:export-ydpi="96"
   xmlns:inkscape="http://www.inkscape.org/namespaces/inkscape"
   xmlns:sodipodi="http://sodipodi.sourceforge.net/DTD/sodipodi-0.dtd"
   xmlns="http://www.w3.org/2000/svg"
   xmlns:svg="http://www.w3.org/2000/svg">
  <sodipodi:namedview
     id="namedview7"
     pagecolor="#ffffff"
     bordercolor="#000000"
     borderopacity="0.25"
     inkscape:showpageshadow="2"
     inkscape:pageopacity="0.0"
     inkscape:pagecheckerboard="0"
     inkscape:deskcolor="#d1d1d1"
     inkscape:document-units="mm"
     showgrid="false" />
  <defs
     id="defs2" />
  <g
     inkscape:label="Layer 1"
     inkscape:groupmode="layer"
     id="layer1"
     transform="translate(-27.401137,-83.627996)">
    <path
       style="fill:#000000;fill-opacity:1;fill-rule:nonzero;stroke:none;stroke-width:0.222942"
       id="path325"
       d="M 28.64565,96.475746 C 30.290249,97.796515 32.612604,98.46473 33.579442,100.43804 34.837951,103.00666 34.981858,118.07153 35.049864,119.66504 35.181975,122.76066 35.427169,125.84998 35.537195,128.94667 35.732304,134.43799 35.614857,135.87417 35.460916,141.06044 32.275848,155.6048 36.580554,137.13633 32.941569,149.55426 32.625343,150.63338 32.395197,151.75927 32.343899,152.89186 32.298311,153.89834 32.837344,154.90828 32.654349,155.89562 31.166408,158.49687 31.422309,157.25638 31.298426,159.40737 30.99318,159.7027 30.756511,160.11826 30.382687,160.2934 30.234404,160.36286 29.956433,160.21174 29.960374,160.03422 29.993383,158.54769 30.311231,157.08552 30.486661,155.61117 24.172601,165.71792 37.142276,175.55852 43.456336,165.45176 V 165.45176 C 43.732757,164.40753 45.497652,160.71505 44.405224,158.86252 44.084182,158.3181 43.49399,158.03922 43.038372,157.62758 42.222322,155.24577 42.874554,156.363 40.873117,154.43543 40.502287,153.62753 40.799418,152.60124 40.530791,151.74562 40.236719,150.80895 39.654783,150.01428 39.21385,149.15042 36.720593,144.26574 37.832571,147.0435 36.141585,141.0583 35.903778,133.41844 35.793897,137.47396 36.66624,128.90006 36.598923,125.79209 35.858524,122.74245 35.627002,119.64409 35.204603,113.99132 34.493024,105.96531 36.441929,100.28976 37.161969,98.192868 38.789355,96.627241 39.963068,94.795981 38.885274,85.976763 27.567857,87.656529 28.64565,96.475746 Z" />
    <path
       style="fill:#000000;fill-opacity:1;fill-rule:nonzero;stroke:none;stroke-width:0.264583"
       id="path327"
       d="M 45.287759,100.4722 C 45.406176,100.33223 45.709076,100.22331 45.64301,100.05228 45.547903,99.806082 45.224585,99.696292 44.966568,99.640732 44.082897,99.450442 44.335272,100.99126 44.834618,100.5409 45.344277,100.08124 45.676392,99.456662 46.097281,98.914546 46.686246,99.228982 47.275214,99.543412 47.864179,99.857852 48.838473,99.559482 49.803083,98.698032 50.787057,98.962732 51.566322,99.172361 51.419851,100.56175 52.099285,100.99714 52.857549,101.48305 53.889511,101.24854 54.753056,101.50419 59.072566,102.78297 57.845963,102.10905 59.677634,106.00344 60.454885,106.66023 61.308568,107.236 62.009389,107.97379 63.099652,109.12156 64.63959,111.4775 65.319884,112.92813 65.682723,113.70184 65.753388,114.60312 66.181585,115.34267 70.047488,122.01954 65.780669,112.51324 68.481827,118.87293 68.558839,120.43626 70.207548,121.02779 70.763289,122.27499 71.067573,122.95786 71.017374,123.75168 71.059977,124.49805 71.064854,124.5835 70.960454,128.77019 70.952226,128.8208 70.848284,129.46031 70.554507,130.05405 70.355646,130.67067 69.659109,132.46799 69.634365,132.19937 69.411501,134.18507 69.327168,134.93649 69.687131,135.82701 69.255913,136.44813 68.807558,137.09393 67.511166,136.78269 67.130507,137.47058 66.734558,138.18609 67.450624,139.10524 67.337359,139.91512 67.209978,140.82593 66.72878,141.65087 66.424491,142.51875 65.64865,144.1901 63.515937,144.72842 62.578819,146.24854 61.960054,147.25224 61.948381,148.56129 61.301795,149.54731 60.084616,151.40346 57.267979,153.71483 55.128796,154.426 54.005883,154.79932 52.77248,154.64729 51.594322,154.75793 48.50985,152.81638 50.133812,153.08436 46.973745,153.60716 46.043454,153.76106 45.107091,153.87978 44.180782,154.05608 43.303053,154.22313 40.769618,154.95674 39.660056,154.79399 39.296124,154.74061 39.032758,154.4097 38.719108,154.21755 38.491934,153.53162 38.859276,154.41273 38.166239,153.73424 38.007172,153.57851 37.940859,153.35029 37.828171,153.15831 23.629452,153.47605 24.078796,173.55607 38.277513,173.23833 V 173.23833 C 38.632189,172.97618 38.952118,172.65892 39.341542,172.45188 45.344795,169.26013 35.950029,174.91401 42.950568,170.58677 48.843219,168.40783 41.386338,171.57651 46.26277,168.14736 46.823022,167.75339 47.625517,167.87447 48.228814,167.55022 48.911458,167.18334 49.306301,166.3142 50.053863,166.10984 50.950292,165.86479 52.060095,166.80234 52.835951,166.29078 53.952493,165.5546 54.245775,164.0177 54.950689,162.88116 56.185999,162.16281 57.438796,161.47372 58.656623,160.72611 61.662681,158.88072 63.738451,157.18926 67.054254,155.85414 68.756205,155.16885 70.828641,155.32356 72.321757,154.25732 74.012587,153.04989 72.250219,149.06258 75.787446,149.07656 76.458038,148.14727 77.122626,147.21362 77.799219,146.28869 78.47773,145.36114 79.410465,144.57998 79.852666,143.51922 80.229838,142.61447 79.826335,141.51309 80.172375,140.59598 80.599537,139.46386 81.624462,138.63524 82.113134,137.52829 82.926114,135.68671 82.972664,133.53744 83.150597,131.58166 84.063036,126.87105 83.759649,130.46761 82.983769,125.3405 82.807509,124.17575 82.962433,122.96155 82.669986,121.82041 82.380104,120.68928 81.634584,119.71963 81.259855,118.6137 80.256674,115.65305 80.223167,114.14878 79.836323,111.07881 79.231927,110.35061 78.630095,109.62028 78.023136,108.89421 76.928703,107.58502 75.970813,106.25834 74.500796,105.32199 73.565573,104.72628 72.425899,104.4845 71.520453,103.84445 69.485333,102.40584 68.17282,100.39506 66.683211,98.463547 65.501246,97.89703 64.117742,97.633904 63.137318,96.763991 61.468101,95.282925 59.778358,90.769184 57.896639,89.455813 56.992457,88.824729 55.662669,89.304739 54.6348,88.905623 52.313714,88.004359 50.575811,85.923581 48.193495,85.123163 47.119221,84.887518 46.065287,84.523043 44.970669,84.416228 43.325741,84.255716 39.518784,84.672938 38.059483,85.069678 35.197728,85.847698 32.790547,87.560153 30.273838,89.033022 22.185116,99.649472 37.199039,111.08865 45.287759,100.4722 Z" />
    <path
       style="fill:#000000;fill-opacity:1;fill-rule:nonzero;stroke:none;stroke-width:0.264583"
       id="path329"
       d="M 64.484116,97.72896 C 70.295195,97.377019 72.317291,96.641147 77.926987,98.730109 80.125934,99.548963 82.054302,100.96367 84.117959,102.08045 86.384745,103.00998 88.607256,104.05582 90.918322,104.86904 99.612442,107.42939 95.572712,106.04983 103.07532,108.89528 109.38402,114.65507 103.82385,110.48808 110.08653,113.30998 111.18466,113.80479 112.7761,115.26384 113.94376,115.75594 114.48875,115.98562 115.32993,115.6641 115.67492,116.14446 116.10543,116.74387 115.76494,117.61769 115.80995,118.35431 107.77094,114.33615 109.79149,117.37219 110.79428,105.48919 110.81298,105.2676 111.27004,105.72482 111.27953,105.94699 111.3288,107.09963 111.12858,108.25189 110.96117,109.39336 110.73104,110.9624 110.37914,112.51115 110.08813,114.07005 109.75566,116.5543 109.42319,119.03856 109.09072,121.52281 93.985457,138.97829 112.68598,117.20219 97.901092,134.95195 95.976822,137.2621 93.988928,139.51872 92.005003,141.77786 90.380879,143.62728 89.247044,146.11491 87.077392,147.27714 84.728038,148.53562 80.565925,147.07285 78.170332,146.42462 76.885989,146.1 76.560388,145.71927 75.39225,146.39696 75.079073,146.57865 74.89188,146.9222 74.616351,147.15709 74.275113,147.44801 73.012494,148.39835 72.551704,148.53207 71.954272,148.70543 71.317034,148.68538 70.6997,148.76204 90.232996,177.66529 77.441204,169.12126 83.08215,162.54457 83.721293,161.79941 84.64833,161.36025 85.420476,160.75398 87.086256,159.44605 91.704595,155.52606 93.43262,155.0678 95.038512,154.64194 96.736812,155.41905 98.388902,155.59468 103.97522,157.02091 100.97669,155.66263 105.22617,158.89787 105.75664,159.30172 106.36638,159.59831 106.87753,160.02636 107.39311,160.45812 107.72983,161.09574 108.2918,161.4651 111.75438,163.7409 108.23438,159.97984 111.10207,163.45333 111.78488,162.91122 112.59613,164.63187 111.98962,164.77807 111.79181,164.82575 111.78126,164.37385 111.58469,164.32128 110.22008,163.95632 111.36399,165.16403 110.46067,163.94849 107.24618,164.37336 109.5808,164.39679 106.5014,158.17067 109.29447,172.45808 129.49993,168.50809 126.70686,154.22067 V 154.22067 C 122.73651,147.12863 125.54164,147.66593 121.18466,147.66915 119.4213,145.47928 121.15117,147.03561 118.70641,146.27173 118.28388,146.13971 117.99408,145.57186 117.55332,145.61293 117.07225,145.65774 116.87647,146.54623 116.39698,146.48688 114.08703,146.20092 117.66363,143.7526 114.6719,146.31412 113.54674,146.69608 112.92302,146.97167 111.70585,147.10213 110.977,147.18025 110.23157,147.06425 109.50827,147.18326 105.52057,147.83938 102.02963,150.03487 98.045662,150.72988 89.939052,151.65665 95.920172,151.67543 87.353734,149.47572 86.049883,149.14091 84.634182,149.2837 83.367611,148.82772 82.165461,148.39493 81.091594,147.63747 80.079939,146.85706 79.368207,146.30803 78.858558,145.53789 78.247868,144.8783 81.663697,150.53291 85.079526,156.18752 88.495358,161.84212 87.749355,161.61805 86.999713,161.40576 86.257353,161.1699 86.074084,161.11167 86.675324,161.43872 86.817233,161.30896 87.042713,161.10277 86.985137,160.7214 87.06909,160.42761 87.215388,160.17276 87.282227,159.85117 87.507986,159.66306 87.804663,159.41586 88.433763,159.54738 88.562472,159.18329 88.819589,158.45597 88.517744,157.64108 88.495382,156.86997 87.984765,154.66886 86.555957,149.68855 87.446476,147.60401 88.414475,145.3381 90.681033,143.88589 92.274955,142.00685 97.989092,135.27058 103.61494,128.45691 109.18523,121.60156 111.55603,120.84439 113.92683,120.08721 116.29763,119.33003 117.74028,119.01452 119.20501,118.78695 120.62559,118.38351 121.39114,118.16609 122.06322,117.67579 122.83303,117.47398 124.06645,117.15064 126.17185,118.01747 126.60145,116.81693 127.93122,113.1009 128.74276,108.66984 127.29783,104.99705 126.44437,102.82767 123.01163,103.16211 120.86852,102.24464 118.48861,102.08398 119.79185,102.06249 116.96382,102.45285 116.00339,102.40005 115.09116,101.70575 114.14087,101.8546 113.02641,102.02917 112.21819,103.13582 111.11452,103.36906 103.66702,104.94296 111.22152,100.0687 103.46086,106.62236 101.62347,106.55278 99.760272,106.72834 97.948692,106.41363 94.301222,105.78 87.596563,103.35416 84.323331,101.71534 80.349398,99.725702 76.184288,97.56458 74.86103,92.806826 74.256343,90.63269 74.957431,88.294535 75.00563,86.038388 66.739147,78.598553 56.217631,90.289126 64.484116,97.72896 Z" />
    <path
       style="fill:#000000;fill-opacity:1;fill-rule:nonzero;stroke:none;stroke-width:0.264583"
       id="path331"
       d="M 138.24794,153.5759 C 136.04442,151.18515 132.55089,149.52402 131.63737,146.40366 130.61186,142.90078 136.8892,130.4847 137.82355,128.26102 138.79012,125.96065 143.15405,114.20233 145.18038,111.2914 146.23362,109.77836 147.91424,108.81745 149.28117,107.58047 155.80334,106.10553 151.00414,106.64256 155.66661,107.07285 156.46376,107.14641 157.43368,107.58859 158.06806,107.1003 158.70756,106.60807 158.16087,105.37829 158.67563,104.75678 161.49026,101.3585 160.47923,106.82499 160.84063,101.9008 161.03598,101.54794 161.03199,100.92518 161.42669,100.84223 162.30223,100.65823 163.61658,101.45306 163.35189,102.50756 163.18867,103.15781 162.87967,103.83862 162.3527,104.25306 161.66423,104.79451 160.7026,104.84779 159.90792,105.21607 159.56253,105.37614 159.26671,105.62656 158.94611,105.8318 153.43855,103.61724 148.65922,104.64699 148.48268,98.81792 148.47449,98.54736 149.03819,98.88421 149.26678,99.02919 150.33566,99.70709 151.42259,100.3882 152.33758,101.26277 158.61485,107.26272 157.01859,105.2267 158.04349,113.49026 158.18303,115.69416 158.82666,117.92395 158.4621,120.10196 156.16303,133.83738 156.26268,116.72072 154.65513,128.68384 154.40074,130.57696 155.83515,135.0508 155.99743,136.76925 156.11668,138.032 155.91418,139.30461 155.87255,140.5723 152.73582,147.31291 155.78426,139.91276 154.12674,146.69918 153.79418,148.06077 152.62677,149.39524 152.64747,150.89552 152.75384,158.60524 153.83222,148.11209 152.97224,154.96592 150.41656,161.66125 153.87591,151.35786 153.17055,158.5613 153.10583,159.2222 152.2345,159.54278 151.97245,160.15294 151.84788,160.44299 152.40344,161.65624 152.07614,161.95868 151.87232,162.14701 151.52717,161.8769 151.25268,161.83601 150.55032,157.09326 150.53134,159.99155 153.06504,153.33193 143.11182,164.61218 159.0645,178.68816 169.01772,167.40792 V 167.40792 C 172.80243,160.46332 172.6817,163.68099 171.61003,158.10244 171.35019,157.81449 171.02797,157.57243 170.83051,157.2386 170.78805,157.16683 171.14722,157.25017 171.0782,157.20336 170.8683,157.06099 170.5948,157.0428 170.36965,156.92603 169.89647,156.6806 168.56872,155.88282 168.34691,155.37517 168.1546,154.93499 168.32005,154.41483 168.30662,153.93466 168.20328,150.13119 168.42465,154.30743 167.81986,150.10467 167.72123,149.4193 167.93566,148.6704 167.66469,148.03321 167.33638,147.26117 166.44722,146.82541 166.10047,146.06148 165.28026,144.25441 165.85644,141.97055 164.36989,140.36504 163.88839,139.06284 162.99723,137.84495 162.9254,136.45844 162.36174,125.57969 165.62209,137.67557 163.64576,127.85961 161.42505,116.82988 163.76261,133.59182 158.88412,120.07859 158.135,118.00356 158.62708,115.67385 158.49856,113.47148 158.60512,111.15733 158.05524,108.71637 158.81823,106.52902 159.63452,104.18891 161.74146,102.52052 163.05223,100.41711 163.92469,99.01707 164.66809,97.5365 165.35634,96.037302 165.83541,94.993745 166.70445,93.942177 166.5469,92.804768 165.72886,86.898908 158.64589,85.699134 154.54351,83.627997 154.18849,83.925603 153.86,84.258091 153.47844,84.520815 152.67798,85.071974 151.66837,85.354183 151.00501,86.064434 150.47857,86.628073 149.53899,89.215962 149.31455,90.120096 149.17771,90.671314 149.32875,91.312674 149.03985,91.801653 148.73321,92.320641 148.10838,92.567082 147.64265,92.949797 147.38454,93.287262 147.13311,93.629935 146.86833,93.96219 146.65742,94.226848 146.37699,94.442449 146.21595,94.740097 146.03303,95.078187 145.99565,95.477618 145.85491,95.835327 145.63389,96.397087 145.23077,96.90021 145.13176,97.49571 144.66413,100.30838 145.28044,102.81503 145.66423,105.61429 145.37004,107.44423 145.40796,109.35969 144.78167,111.1041 143.89857,113.56381 142.28181,115.69893 141.19091,118.0738 139.7013,121.31666 138.36664,124.62947 137.04594,127.94472 136.20486,130.05598 131.65232,143.61578 129.17923,145.62482 126.46207,147.83212 122.5815,147.96799 119.28263,149.13957 116.14568,162.55007 135.11098,166.9864 138.24794,153.5759 Z" />
    <path
       style="fill:#000000;fill-opacity:1;fill-rule:nonzero;stroke:none;stroke-width:0.264583"
       id="path333"
       d="M 174.36562,125.70951 C 172.9223,125.37264 171.51624,124.76634 170.03566,124.6989 169.41644,124.6707 160.35051,125.95468 159.95165,126.02773 157.44331,126.4871 155.01727,127.54558 152.46818,127.61608 146.89086,127.77033 145.60249,126.18697 141.33705,123.5332 139.57924,120.4144 138.14199,119.88532 139.78584,116.54135 140.10559,115.8909 141.99704,115.42106 141.37201,115.05411 139.71049,114.07865 137.56888,114.43364 135.66731,114.1234 121.40322,113.89938 121.08642,134.07185 135.35051,134.29586 V 134.29586 C 133.93005,133.5558 132.20408,133.22558 131.08913,132.07568 130.58866,131.55953 132.61824,132.47628 133.24538,132.12476 143.71186,126.25814 129.77022,131.01085 140.43416,127.85228 142.26118,127.46664 144.04854,126.64866 145.91523,126.69536 151.89932,126.84504 153.77443,128.97164 158.46498,132.35986 158.65282,132.49555 163.51335,136.04995 163.79559,137.0703 164.00526,137.82832 163.25741,138.54833 162.98833,139.28734 172.58931,147.3323 183.9666,133.75447 174.36562,125.70951 Z" />
  </g>
</svg>
