<?xml version="1.0" encoding="UTF-8" standalone="no"?>
<!-- Created with Inkscape (http://www.inkscape.org/) -->

<svg
   width="800"
   height="600"
   viewBox="0 0 800 600"
   version="1.1"
   id="SVGRoot"
   xmlns="http://www.w3.org/2000/svg"
   xmlns:svg="http://www.w3.org/2000/svg">
  <defs
     id="defs9" />
  <g
     id="layer1">
    <path
       id="path1011"
       style="fill:#000000;stroke-width:1.20593"
       d="M 311.58272,422.85211 C 316.90985,419.82258 321.62033,416.08807 326.04856,412.13297 328.21042,410.20209 330.52112,408.20372 331.91965,405.76723 323.99428,409.43167 333.42548,405.81669 315.66687,396.84704 314.85342,396.43618 314.76488,398.30632 314.5571,399.10457 314.21465,400.42022 313.62642,401.82383 314.03257,403.12569 316.6879,411.6372 318.45084,409.60967 327.82845,411.35113 331.97738,410.47125 335.49169,408.72602 338.26583,405.94576 338.37332,405.75822 338.75306,405.53599 338.58829,405.38314 335.0802,402.12888 331.76903,398.60651 327.58011,396.03321 327.20741,395.80425 323.01322,399.78259 322.66652,400.22305 322.2967,400.6929 322.07999,401.24127 321.78672,401.75037 320.46852,404.27493 320.77105,402.78024 321.94563,406.30138 321.75568,406.48716 324.77497,408.82498 324.96492,408.63918 V 408.63918 C 329.95992,409.32785 327.87742,409.72856 331.35515,408.3578 334.74687,406.87481 332.01586,408.20695 334.31583,406.80217 334.60451,406.62585 334.90033,406.45272 335.22188,406.32659 335.52575,406.20741 336.34191,406.32428 336.17794,406.07175 329.65963,396.03311 332.44481,397.33686 327.7732,395.26302 326.84757,395.38355 323.36214,396.00196 322.81037,395.91034 322.73513,395.89784 322.8359,395.77886 322.84864,395.71312 325.36468,396.35043 328.41405,396.13402 330.39675,397.62504 334.69206,400.85512 332.59385,402.48893 332.28419,405.54602 332.27454,405.6413 332.64179,405.48583 332.57464,405.41009 328.75336,401.10069 325.50038,396.30189 320.85496,392.65677 320.04006,392.01734 318.86956,393.47038 317.87684,393.87719 308.37363,397.07072 300.78264,403.84827 294.26636,410.41612 293.25586,411.48167 310.57223,423.91765 311.58272,422.85211 Z M 365.22408,412.7507 C 368.32722,403.40655 367.70948,408.57376 365.7585,397.17235 366.01024,396.46597 354.53061,393.36782 354.27887,394.07422 V 394.07422 C 344.13519,401.82107 347.67429,397.53065 342.6301,406.25108 342.10195,407.64137 364.69593,414.14101 365.22408,412.7507 Z M 368.69493,220.28068 C 382.2961,207.24209 371.45034,219.55469 380.90921,201.30329 382.80808,197.63932 385.48235,194.31878 387.76892,190.82654 388.29092,190.01295 375.06922,183.58887 374.54724,184.40245 V 184.40245 C 371.58744,187.49539 368.98803,190.87906 365.66786,193.68125 347.76041,208.79502 359.29561,194.06791 348.62176,209.74627 347.76577,210.98145 367.83895,221.51586 368.69493,220.28068 Z M 260.79974,244.28229 C 263.58014,239.97286 267.49128,234.70566 268.12227,229.69856 268.64201,225.57423 266.915,221.41082 267.27202,217.27342 267.62783,213.1499 269.25158,209.18456 270.24138,205.14014 270.49068,204.22798 255.66688,201.15985 255.41758,202.07202 V 202.07202 C 253.80058,205.97699 252.76328,210.10257 250.56656,213.78693 248.28209,217.61854 244.20197,220.52433 242.08773,224.42924 239.60911,229.00711 239.87295,235.27483 239.71691,240.22355 239.38712,241.52086 260.46993,245.5796 260.79974,244.28229 Z M 197.95723,433.30024 C 214.88499,428.23934 229.98528,419.59359 245.36455,411.80142 248.66521,410.43225 251.81115,408.94757 255.33834,408.06382 256.22903,407.84065 257.23862,408.01674 258.08533,407.68861 258.70782,407.44738 256.6804,407.57732 256.0444,407.79018 255.81137,407.86818 256.51512,407.98747 256.65544,408.16719 256.93771,408.52875 257.06696,408.96472 257.2727,409.36346 259.9263,417.88425 256.40048,426.14788 252.83755,434.03253 245.01923,448.61313 235.76551,462.62685 228.19997,477.30904 220.56808,492.11999 219.31086,496.49528 213.3595,511.73249 210.53138,522.11128 204.63391,535.64512 206.42547,546.6896 207.72178,554.68087 213.82785,556.81228 224.8526,556.6656 228.01777,556.62348 229.93652,553.38218 232.47847,551.74048 247.68308,539.57876 260.19363,525.14764 272.39095,510.71875 279.50746,502.10898 286.84233,493.6327 293.41114,484.69352 297.97057,478.3858 301.5964,471.63244 305.5817,465.05092 308.24017,460.29539 311.92381,456.19644 316.55353,452.80421 322.05171,449.15279 327.80612,445.80896 333.19149,442.02683 336.83506,439.31025 340.01207,436.38999 341.64721,432.42282 343.26421,425.86474 338.97164,424.16517 331.76831,424.53875 328.80638,424.69235 324.56145,426.54204 322.05382,427.47004 307.25826,434.80444 295.75593,446.32871 288.20054,459.55122 286.71334,462.1539 285.60105,464.90643 284.3013,467.58404 279.97201,478.76748 277.42897,491.21118 282.28477,502.63546 283.02511,504.3773 284.1261,505.98638 285.04676,507.66182 289.21574,513.16269 294.80217,517.58166 302.26927,519.32724 307.84529,520.63075 311.05173,519.93603 317.1976,519.67432 327.83075,517.55884 337.37568,512.67914 345.14958,506.05422 347.00525,504.47279 348.69118,502.74726 350.462,501.0938 360.44593,490.52432 367.4241,477.82346 368.85901,464.06537 369.14656,461.30839 368.94811,458.5293 368.99268,455.76126 367.66739,443.07601 363.58629,433.1307 353.19449,424.09753 347.16402,420.227 344.15024,417.92285 339.97624,427.63011 339.5257,428.67793 344.57908,432.24195 344.9031,432.49448 353.94681,437.51011 364.57256,437.08041 374.77501,435.60313 382.56111,434.08418 390.30735,432.4307 398.12398,431.03626 399.34927,429.93264 401.06496,431.08345 402.38652,430.60738 402.86451,430.43519 401.35195,430.57806 400.83654,430.53956 399.7505,430.45845 400.16143,430.58752 399.77457,431.86356 396.21766,445.15157 391.83657,458.27234 387.85692,471.47178 383.6575,485.15439 378.15043,498.73386 376.15088,512.85281 379.80901,515.10762 380.63978,515.75756 388.99317,512.75706 390.72543,512.13484 390.17873,509.66287 390.75947,508.11234 392.68146,502.98082 393.70945,499.76585 396.16922,494.62402 397.66925,491.48838 399.38968,488.43605 400.9999,485.34207 409.66538,469.51343 417.24376,453.20877 426.79604,437.75462 428.34985,435.95844 426.99331,437.80482 422.96524,437.97758 422.44212,438.00001 422.07256,437.38572 421.54881,437.38569 421.31767,437.38568 421.60163,437.78961 421.68409,437.97752 422.56043,439.9745 422.77685,439.98059 424.29468,441.95754 430.65233,447.93828 438.58689,446.35871 446.53584,443.99881 459.41231,439.41335 470.30941,431.84973 480.88907,424.16374 505.5967,405.50248 525.33271,382.60313 544.32521,359.59638 553.73816,347.25387 562.68759,334.64262 570.11435,321.29682 573.40889,315.37658 577.63219,307.0147 579.87789,300.56188 580.71778,298.1485 581.13524,295.63877 581.76391,293.17721 581.79191,291.33897 582.20161,289.47493 581.84786,287.66248 581.08969,283.77789 578.27972,280.07879 573.09908,279.59271 563.9533,278.7346 553.65422,286.1985 547.00332,290.48174 538.00594,297.33641 533.35316,300.46977 525.1499,308.7105 521.06087,312.81819 517.36872,317.21516 513.63769,321.57326 501.30309,335.98091 495.32079,343.2358 485.38428,359.56101 480.79777,367.0964 476.96243,374.96027 472.75152,382.65988 469.04055,390.77581 464.9165,398.75777 461.61862,407.00766 451.30515,432.80764 442.82382,464.47434 446.1094,491.98324 446.64679,496.48272 448.14391,500.85578 449.16118,505.29204 450.8739,508.38258 451.98238,511.7874 454.29933,514.56366 460.82745,522.38584 467.75238,524.21427 479.57226,523.01653 483.20023,522.64889 486.17407,520.24212 489.19492,518.45545 495.70911,514.60264 498.92649,510.91499 504.15441,505.89877 515.61885,493.53198 526.01328,480.13975 532.12591,465.05537 533.13033,462.57669 533.85706,460.0193 534.72263,457.50126 537.03282,448.36031 537.74857,439.50888 531.74959,431.40029 530.92236,432.09818 530.39493,428.72141 529.43596,429.24237 508.92263,440.38601 520.83248,438.29851 528.26505,428.98382 528.7891,428.32709 526.7707,428.05324 526.02353,427.58793 522.37405,425.47743 518.37084,423.97634 514.19891,422.86012 513.75952,422.77017 513.07118,422.23408 512.88076,422.59022 510.7879,426.50443 508.59327,430.50725 507.82937,434.77293 507.67963,435.60907 509.6055,435.4684 510.52538,435.74281 513.45229,436.61596 516.40719,436.87912 519.46618,437.10316 523.49976,436.96848 527.44429,437.03485 531.40882,437.68612 540.86753,439.70624 550.91206,439.24622 560.22224,436.83195 562.30719,436.2913 564.31731,435.55226 566.36486,434.91239 577.28688,431.04207 585.48263,423.94178 592.74071,416.09075 598.25855,409.41807 603.45854,401.87228 604.3363,393.4821 604.50069,391.91084 604.34325,390.32657 604.34671,388.7488 603.88556,387.20391 603.73917,385.56045 602.96326,384.11414 599.46844,377.59976 592.62051,375.9336 584.70588,376.76252 580.58682,377.1939 576.01389,380.48872 572.85721,382.39242 559.59593,392.29622 550.8108,405.80795 546.29531,420.42803 545.43087,423.22686 544.95668,426.10611 544.28735,428.94515 542.51808,440.4098 544.45727,451.83282 550.40154,462.21272 551.46625,464.07192 552.75722,465.82632 553.93506,467.63312 555.39783,469.24799 556.64017,471.03461 558.32339,472.47776 564.98852,478.19224 573.204,480.0713 582.4815,477.96884 587.40652,476.85275 594.04618,471.13491 597.52707,468.50683 608.88275,458.37481 618.14509,446.70691 628.08474,435.55872 630.64515,432.68701 642.45218,419.78996 645.1653,416.82241 651.56933,410.45 656.77084,403.07027 664.14061,397.44418 665.2394,396.60535 667.11105,396.42984 667.76026,395.29022 668.1993,394.51953 665.91068,395.95436 664.92959,396.05919 663.81373,396.17842 662.68259,395.9883 661.55909,395.95284 660.86428,397.29069 660.06892,398.59229 659.47469,399.96633 657.74672,403.96198 653.14883,416.59912 652.00086,419.72671 647.22361,432.74191 645.89311,435.51566 642.44435,448.99848 641.27993,453.55076 640.44088,458.16146 639.43914,462.74294 637.80279,476.34256 634.70235,492.37817 659.78811,480.92782 663.12553,479.40447 664.26451,475.65004 666.43387,472.96829 669.40166,469.29952 672.27684,465.57469 675.19831,461.8779 685.80021,448.29621 697.0847,435.10948 709.68831,422.87425 716.10528,416.64486 722.98136,410.32539 730.79801,405.35008 733.30394,403.75505 736.14533,402.60329 738.81901,401.22989 740.91933,400.74373 742.99377,400.16316 745.11998,399.77142 745.33849,399.73116 745.53786,399.91509 745.75724,399.95156 752.305,401.03992 747.72222,399.94336 754.2914,401.78605 760.26187,403.46077 756.89725,402.65832 764.05094,403.99252 776.27279,404.14363 779.33772,401.79447 788.74982,395.84924 789.25868,395.54019 784.23643,389.27781 783.72756,389.58685 V 389.58685 C 781.67803,389.989 772.00014,391.74296 769.04158,392.74797 768.84958,392.8132 769.04174,393.10669 769.04181,393.28606 768.12127,393.24517 767.1441,393.44303 766.28019,393.16338 764.94022,392.72962 763.86578,391.8288 762.626,391.20924 760.95779,390.37557 759.30078,389.51591 757.55907,388.80513 755.34623,387.90207 753.18475,386.75265 750.77954,386.37479 739.96501,384.67573 737.40372,385.77532 727.28684,387.28748 723.25278,388.68724 719.03758,389.74285 715.18467,391.48675 692.41024,401.79499 675.0095,419.73533 661.81088,438.4982 658.48167,443.23094 655.76228,448.26873 652.73799,453.154 650.68366,457.38768 648.41409,461.54705 646.57501,465.85504 645.34714,468.73131 641.76948,472.02756 643.55042,474.67573 645.8803,478.14015 652.08529,477.80274 656.01946,479.89847 657.07355,480.45998 657.12585,482.98533 658.22437,482.49249 663.91839,479.93795 660.69291,468.9015 666.13071,467.24893 667.56533,462.69779 669.19412,458.18966 670.43453,453.5955 673.85343,440.93282 674.49494,435.98171 675.983,423.14924 676.80377,416.07126 677.8447,407.2888 677.01849,400.05189 676.6901,397.17532 675.69286,394.38668 675.03002,391.55408 672.80593,389.41562 671.42716,386.22699 668.35775,385.1387 665.39906,384.08966 661.90383,385.12969 658.80345,385.80078 656.53446,386.2919 654.51848,387.46682 652.54717,388.56094 643.45033,393.60984 635.93372,400.64387 628.57973,407.39209 625.55509,410.48366 622.43961,413.50962 619.5058,416.66679 606.82398,430.31405 595.94046,445.10293 583.85837,459.13246 582.37467,460.64599 581.01339,462.25732 579.4073,463.6731 578.50655,464.46711 576.74828,464.6636 576.3733,465.73056 576.14902,466.36876 578.647,466.23073 578.29937,466.82559 577.93562,467.44808 576.62719,466.83638 575.92003,466.50625 573.61644,465.43086 571.33262,462.49098 569.87627,460.90259 566.99236,456.95095 563.94123,452.79049 562.66793,448.16077 561.23422,442.94775 562.12226,437.42186 563.40103,432.28994 564.15577,429.9814 564.79141,427.64081 565.66523,425.3643 567.79152,419.82484 570.11901,415.38272 573.00592,410.09787 574.62101,407.14123 578.95228,399.48012 581.17547,396.46917 582.21097,395.06674 583.5356,393.84297 584.71567,392.52985 585.71348,391.77205 586.65638,390.95571 587.70912,390.25643 588.32735,389.84574 589.96359,389.85206 589.71022,389.21214 589.37081,388.35493 587.57537,388.7589 586.85637,388.10272 586.25385,387.55286 590.47789,386.07395 589.16401,388.65699 588.98603,396.26297 584.14451,402.49649 579.11821,408.42995 576.31662,411.38571 573.53628,414.47543 569.86142,416.67337 566.13014,418.90509 561.66568,419.91763 557.48297,421.27235 552.52582,422.5015 552.20917,422.65477 547.17423,423.60486 545.58301,423.90513 543.90238,423.91981 542.38165,424.42603 542.11249,424.51563 543.16739,424.93022 542.9016,425.02712 541.75493,425.44514 539.2927,425.08376 538.0916,424.96494 533.51694,424.02182 528.95127,423.13018 524.21663,423.17782 512.82683,423.22345 518.27987,421.62874 508.57151,434.27829 508.52477,434.3392 508.49549,434.14763 508.45748,434.0823 511.22662,433.91527 513.79555,435.78155 516.07245,436.865 516.73181,437.22785 517.30487,438.15307 518.05053,437.95352 522.75869,436.69358 527.2611,434.8308 531.55019,432.72303 531.98369,432.51 531.77132,431.29704 531.30194,431.44143 526.91278,432.79156 522.89937,434.93144 518.69809,436.67644 518.59474,436.59215 518.52816,436.44176 518.38808,436.42354 518.30624,436.4129 518.40174,436.56705 518.40857,436.6388 519.95039,441.58952 516.62816,447.67844 515.00221,452.21694 513.95536,454.1799 513.01132,456.18693 511.86167,458.10584 508.79305,463.22778 505.84903,466.98501 502.21709,471.86886 496.62873,479.38351 491.08266,486.95567 484.45285,493.82527 479.278,498.93226 479.39278,498.99746 474.25617,503.46129 473.57281,504.05514 471.5642,504.50434 472.13729,505.18079 473.51627,506.80843 476.36262,506.92872 478.22171,508.14194 478.47238,508.30554 477.77085,508.52072 477.54542,508.71009 477.31681,506.95275 477.08821,505.1954 476.85961,503.43806 477.0447,499.97229 477.02265,496.49343 477.4149,493.04075 481.3098,458.75509 493.9995,425.8953 507.53948,393.73215 514.12859,379.74283 521.16777,364.46634 528.27767,350.63637 531.25474,344.84545 534.12468,338.99745 537.58728,333.4147 540.3297,328.99311 543.77362,324.92933 546.85687,320.68117 557.27231,306.33057 551.76795,313.26541 561.83189,301.32648 563.73173,299.40529 565.61774,297.47367 567.53142,295.56291 568.86912,294.22723 570.90083,293.25593 571.58573,291.58742 571.88255,290.86434 570.2945,290.50133 569.88907,289.81937 569.24803,288.74105 568.94835,287.53334 568.49332,286.38565 568.45101,286.27897 568.45608,285.95676 568.39756,286.05749 567.80472,287.07784 567.36647,288.16083 566.85092,289.21249 553.6587,309.91726 538.56067,329.63658 523.37059,349.26122 505.63035,371.61462 486.85667,393.32892 466.69109,414.07925 458.63797,421.61444 450.5265,429.76293 439.85136,434.54269 439.05287,434.83502 438.27497,435.17425 437.45589,435.41967 436.78715,435.62004 435.78725,435.36136 435.40003,435.87642 435.12285,436.24512 436.57608,435.8368 436.87492,436.19248 437.18697,436.56391 434.49383,437.0207 434.61637,436.62773 432.94901,435.10067 432.58882,432.99506 431.00586,431.4134 425.69,426.10196 421.42572,427.78292 415.18724,430.74016 413.66055,431.84731 412.00201,432.82973 410.60719,434.06158 406.09518,438.04642 402.19719,442.93696 398.89669,447.67655 391.71475,457.98993 386.10732,469.06069 382.08464,480.59756 379.62665,489.01469 377.19097,497.36698 376.00526,506.00825 375.76161,507.78394 374.26328,509.9437 375.52284,511.35672 384.01704,520.88591 383.87003,520.09176 388.55593,516.60859 398.52761,504.35183 402.13108,488.94258 406.19496,474.6408 409.74713,460.18466 413.49711,445.28134 411.52689,430.43207 410.37844,427.22229 410.44972,425.90037 407.58763,423.53127 403.93581,420.50846 398.24917,421.57665 393.72711,421.67583 385.75848,422.56138 377.9359,424.12836 370.06777,425.50673 368.7188,425.68828 367.35734,425.80979 366.02086,426.05137 365.71759,426.1062 365.48428,426.3539 365.17743,426.39078 360.94777,426.89922 356.6302,426.4068 352.48377,425.66343 351.89876,425.46428 351.29165,425.30862 350.72875,425.06597 350.29895,424.88069 349.9704,424.24132 349.52046,424.38599 339.47249,427.61647 340.14465,426.40688 343.50104,429.87544 349.55864,437.38293 352.61942,446.15697 352.57661,455.34985 352.1725,461.24974 352.33504,463.05106 350.74773,468.89986 348.37,477.66117 343.20762,485.68322 337.29693,492.98378 330.13666,500.19895 323.21218,505.69875 312.21025,507.72448 312.10116,509.1661 312.36043,508.5434 308.92746,508.4538 304.37174,508.3349 300.8558,506.22646 298.38609,502.98156 297.78908,501.96601 297.03726,501.00878 296.59507,499.93493 293.05346,491.33431 296.75501,480.94515 300.05408,472.79826 301.35146,470.58276 302.54147,468.31711 303.94624,466.15178 310.99712,455.28342 319.84229,445.12845 330.17325,436.47889 331.27198,435.79468 332.34258,435.07491 333.46943,434.42627 334.13892,434.04089 335.58887,434.07833 335.55619,433.38036 335.52359,432.68381 333.8729,433.04362 333.379,432.49474 332.83794,431.89349 332.15269,429.5708 332.13659,428.94687 329.65265,430.86918 326.94226,432.56283 324.1201,434.08833 318.0163,437.58131 311.64548,440.75974 306.17627,445.02262 300.73262,449.37207 296.00187,454.22564 292.34881,459.84831 288.28561,465.96462 284.48588,472.24778 279.54763,477.88242 272.25239,486.10493 264.30172,493.76412 255.36347,500.68487 241.14514,513.16932 227.44087,526.23752 216.48425,541.07044 216.08051,542.02709 214.47887,543.19139 215.27304,543.9404 218.29003,546.78584 222.50273,548.48015 226.37007,550.39413 226.7737,550.5939 227.4633,550.43706 227.72187,550.10143 229.74687,547.47293 236.16294,534.49407 236.62937,533.51737 238.89236,528.77868 240.9601,523.97116 243.12546,519.19805 248.8553,505.12688 251.57846,499.18932 256.22266,484.7198 257.93483,479.3853 259.27534,473.96572 260.82299,468.59331 262.01478,464.45625 263.23498,460.32544 264.44096,456.19149 265.49554,452.88807 266.6268,449.60246 267.60467,446.28123 268.44092,443.44094 269.12292,440.56792 269.88204,437.71127 270.99382,433.30248 272.36469,428.66586 272.76463,424.13406 273.35958,417.39271 272.16989,410.53899 268.99608,404.37216 267.27286,402.06826 265.42729,398.83808 262.21965,397.67801 253.13137,394.39113 243.4821,396.79507 234.82739,399.62146 218.48669,405.91241 202.99097,413.87945 189.47832,424.12907 188.73311,424.65081 197.21202,433.82198 197.95723,433.30024 Z M 154.96421,307.51792 C 168.52383,316.95221 184.92942,323.18382 202.13574,325.33879 205.24998,325.72881 208.40422,325.81845 211.53846,326.05827 215.85992,325.81921 220.23181,325.96186 224.50282,325.34108 231.6258,324.30577 239.50005,319.59838 243.26084,314.21907 243.8245,313.41284 244.16151,312.5021 244.61184,311.64362 246.15215,305.47639 245.19109,307.43758 232.25663,308.14911 231.82897,308.17263 232.13677,308.8891 232.03075,309.2504 231.91993,309.62809 231.58805,310.1793 231.39455,310.52655 227.87868,314.47874 224.56725,318.57598 221.48533,322.79865 215.12516,332.64905 208.57705,342.50783 203.1441,352.78148 201.14666,356.5586 188.75775,382.79325 187.6486,385.13079 183.95913,392.61064 180.13847,400.04252 176.58018,407.57035 172.55723,416.08117 168.88972,424.71661 164.90726,433.24185 142.348,481.53417 160.66322,441.12914 137.12955,490.61324 132.22963,500.91629 118.66858,530.84711 113.52429,542.16106 103.34496,564.65034 107.73817,554.61651 99.828549,573.06736 98.989959,575.02353 97.875898,576.90652 97.314355,578.93641 97.204221,579.33456 97.947489,578.19517 98.417162,578.16928 109.52595,577.55665 108.25987,581.47626 108.5313,575.48712 106.51402,565.60105 101.92712,556.32324 95.64277,547.92987 92.431963,543.64153 89.275014,540.39861 85.626545,536.43674 82.701673,532.82832 78.21909,529.32824 77.475715,524.67448 76.827269,520.61501 78.801189,516.50121 80.282258,512.77961 84.122437,505.06312 89.17269,497.86912 93.470362,490.33983 98.412782,481.55617 107.0288,474.81592 115.287,468.38527 124.6224,461.29063 135.65484,456.27557 146.32823,450.91842 152.71813,447.52387 159.10941,444.14042 165.55907,440.83256 170.09814,438.52869 174.63749,436.26292 179.31292,434.17848 184.75138,432.47112 190.28813,431.01427 195.76303,429.39702 202.23505,427.248 208.84667,425.07079 214.57981,421.61029 216.01834,420.742 217.35049,419.74732 218.73584,418.81583 229.15267,411.5226 234.42277,401.02967 240.06157,390.84106 245.17512,381.98215 248.00417,372.29334 252.99181,363.39971 256.68784,357.66049 261.84904,352.76558 266.62561,347.70473 274.95867,339.4853 283.38015,331.3383 291.75483,323.15177 296.0893,318.78137 300.68365,314.65901 306.12899,311.3424 307.15679,310.64379 308.32354,310.03774 308.97826,309.02894 306.67086,308.15918 304.51756,306.8669 302.05609,306.41966 301.5583,306.32922 301.73335,307.26057 301.62187,307.69233 301.33369,308.80827 300.98172,316.55768 305.41167,313.27506 303.59968,311.97977 304.45269,307.36853 302.64749,310.7414 302.72557,310.78027 302.80365,310.81915 302.88173,310.85803 302.57483,311.07188 306.05022,314.84894 306.35713,314.6351 V 314.6351 C 306.49135,314.64699 306.62559,314.65889 306.75983,314.67077 310.6134,313.93439 312.59017,310.10691 308.86163,307.54169 308.41429,307.36262 307.51912,306.576 307.51963,307.0045 307.52102,308.16189 308.44496,309.17519 308.86488,310.27338 308.90443,310.37679 308.78563,310.65357 308.89422,310.5993 309.13278,310.48011 310.04052,309.05494 310.02853,309.03972 308.48526,307.08234 306.34044,305.54122 304.49639,303.792 304.50538,303.04899 300.18998,304.51012 299.75877,304.61842 292.82375,307.55028 286.71261,311.65971 281.14757,316.29249 271.91272,324.22025 263.65683,332.88727 256.33987,342.21945 251.67514,347.88314 247.11901,353.61776 242.52091,359.32238 236.46309,368.07427 231.24851,377.21498 227.30996,386.8614 226.53824,388.60424 225.86507,390.38259 224.9948,392.0899 221.38188,399.17772 216.13696,405.76198 209.78451,411.17274 203.57766,415.14277 196.849,418.21199 189.55592,420.40992 183.98005,422.2562 178.3389,423.96582 172.86828,426.04327 167.65051,427.82015 162.57559,429.96415 157.64535,432.2767 151.01958,435.29842 144.28917,438.09486 137.29026,440.41646 124.68123,445.21609 112.38418,450.7993 101.99267,458.77667 97.44104,462.53887 95.609266,463.84907 91.565602,467.98282 86.535511,473.12496 82.594959,478.88516 78.905015,484.79946 73.675243,492.72568 67.801159,500.33347 63.152996,508.5344 61.22201,513.47092 59.945972,515.75224 59.477971,521.08186 58.69001,530.05522 62.220874,538.0883 67.830315,545.45766 73.279984,552.73836 79.32634,559.86791 83.615839,567.74801 84.687049,569.7159 85.545428,571.76645 86.478051,573.78705 87.414958,575.8169 88.308823,577.86161 89.224204,579.89889 90.441152,582.1904 90.571385,585.23927 92.875059,586.77347 97.064493,589.56359 102.25212,591.50157 107.48811,592.06242 110.45318,592.38002 113.2836,590.57854 115.84003,589.23339 130.46798,581.53639 139.21451,565.27372 148.12546,553.56475 161.16127,531.93027 165.9704,525.21686 176.70993,501.7707 185.60936,482.3418 192.84362,461.84519 199.72548,441.82054 202.75353,433.00963 205.75609,424.18967 208.49022,415.30629 210.88904,407.51231 212.91097,399.63416 215.12136,391.79809 218.43394,380.72917 222.03503,369.72612 225.28478,358.6431 228.2653,348.47829 230.24586,338.00569 235.21653,328.36015 237.91064,323.68832 240.99376,319.19131 243.54984,314.46128 247.49914,306.62523 245.53907,309.39321 232.80908,306.17977 231.86891,305.94243 233.47722,305.99512 232.13737,306.0176 227.7621,308.42057 223.26977,310.16524 217.92666,310.13976 215.52818,309.89271 213.10032,309.80747 210.73123,309.3986 207.80127,308.89294 204.94834,308.09321 202.06854,307.40294 189.18613,304.31514 176.55701,300.51412 163.66277,297.46512 162.84592,296.92986 154.14735,306.98266 154.96421,307.51792 Z M 24.752241,325.48592 C 40.576433,325.27816 56.380549,321.96697 70.935996,316.58315 74.78293,315.16024 78.467045,313.42467 82.232564,311.84541 86.091221,309.73912 90.061781,307.78064 93.808535,305.52654 111.60237,294.82155 129.51966,279.87561 144.06042,266.04503 149.32578,261.03683 154.25077,255.7655 159.34594,250.62574 172.73417,235.83609 184.91404,220.19946 195.33468,203.69033 199.46851,197.14123 204.11418,189.11043 206.827,181.85114 207.66269,179.61492 208.02191,177.26452 208.61937,174.97122 209.18774,166.5962 206.81698,163.11629 198.29696,159.92471 187.27878,156.21747 179.42092,162.44059 171.43775,168.28777 169.15441,170.28036 166.77147,172.19012 164.58774,174.26555 160.54932,178.10372 153.2483,186.0781 149.76729,190.02682 143.26487,197.40292 139.4739,201.91198 133.79228,209.81323 131.41315,213.1218 129.24212,216.54028 126.96703,219.90379 114.84606,237.84186 106.15494,257.28689 97.887322,276.74702 95.116532,284.40776 91.330563,291.83964 89.318364,299.70613 88.790485,301.76983 87.259831,307.7262 89.342086,310.11168 90.517825,311.45865 92.680184,311.84555 94.349234,312.71248 97.477368,311.90785 100.76862,311.48184 103.73366,310.2986 108.13212,308.54332 125.30183,298.28573 127.7035,296.7827 142.61212,287.45243 156.63414,277.2307 170.42526,266.7037 176.6363,262.0853 182.3887,257.69822 188.7592,253.31365 190.92874,251.82041 193.12278,249.90951 195.95192,249.33558 196.56607,249.21098 194.59525,249.54965 194.21454,249.98714 193.55498,250.74503 193.44589,251.76701 193.06156,252.65693 189.98609,261.62639 184.9189,270.48729 184.34272,279.98396 184.25391,281.44753 184.51182,282.91149 184.59635,284.37525 185.08273,285.52218 185.31396,286.77767 186.05547,287.81602 191.09524,294.87324 202.25969,291.06496 209.045,288.69581 220.13935,284.42535 228.75821,277.0276 237.02945,269.52563 238.84508,267.50418 240.90601,265.60017 242.57988,263.47879 242.67688,263.35585 242.38233,263.7915 242.21098,263.79032 239.00246,263.76823 239.94703,262.53706 239.16632,264.60692 237.88386,269.41834 236.59794,274.72629 238.34805,279.59509 238.62499,280.36552 239.11315,281.06589 239.4957,281.80128 240.24806,282.41948 240.78599,283.33494 241.7528,283.65583 251.01858,286.73126 261.57487,278.58747 268.23419,274.12728 270.66739,272.27218 273.20411,270.51508 275.53382,268.56195 279.18865,265.49787 288.64317,256.39472 291.60532,253.43346 299.57757,245.46364 306.08264,238.59332 313.30148,229.96456 317.33479,225.14352 321.08713,220.14911 324.97995,215.24139 335.98569,200.59281 345.83417,185.24139 353.91061,169.20026 357.45704,162.15646 361.22468,153.53967 363.31256,145.93952 364.0335,143.31516 364.29234,140.61067 364.78223,137.94625 364.70354,133.64046 364.91367,128.61895 360.3793,125.76313 356.12878,123.08609 351.60852,124.54105 347.28998,125.90253 330.83759,134.06282 320.4138,148.24309 310.16141,161.60219 296.93629,180.52061 285.63746,200.60389 278.80521,222.00523 277.53959,225.96965 276.60908,230.00934 275.51102,234.0114 273.50206,246.19234 271.69767,258.75368 274.31949,270.99406 275.43427,276.19857 276.52624,277.91049 278.72557,282.61037 281.97948,287.58085 286.53622,294.22968 293.93284,294.95085 296.12453,295.16456 298.34334,294.90538 300.54858,294.88265 312.57419,291.99229 321.21016,283.88385 329.41664,276.17606 339.02352,266.44964 348.61374,256.55443 355.21161,245.01142 355.42103,244.33507 355.76986,243.6802 355.83989,242.98239 355.86291,242.75295 355.73913,242.39875 355.47687,242.36794 353.30814,242.1131 350.96907,241.51025 348.91567,242.16875 347.51322,242.61851 347.09297,244.2335 346.27135,245.32004 343.66854,248.76211 343.38519,249.59275 341.325,253.31293 339.26555,258.09817 335.99089,264.62845 339.75345,269.50417 340.24599,270.14242 340.9909,270.60178 341.60961,271.15059 342.41249,271.47169 343.14798,271.98076 344.01824,272.11387 350.68873,273.13412 356.79637,269.10918 361.92668,266.04018 363.34761,265.12371 364.76554,264.20371 366.18945,263.29075 371.62209,259.8075 371.56693,259.97186 376.89894,256.15492 380.59843,253.50664 383.9262,250.64982 388.13354,248.63213 387.40179,249.50872 385.41676,248.38454 384.61043,249.14711 383.61971,250.08406 383.15949,251.35859 382.4439,252.46917 381.09788,254.55815 379.75539,256.64887 378.42563,258.74571 368.63741,274.18046 377.4713,260.4964 365.87943,278.29305 351.00377,302.48283 334.90384,326.24331 322.98962,351.71676 320.87545,356.23703 319.14508,360.88613 317.22281,365.47082 315.53395,372.3219 310.50188,381.30619 312.57438,388.69731 312.88806,389.81593 313.06591,391.59539 314.37252,391.7769 324.99989,393.25306 325.02556,390.93515 330.2441,385.48827 342.08777,371.83659 351.89038,356.96116 362.48517,342.58106 372.16345,329.44491 375.21559,325.76241 385.51149,312.63124 404.24233,289.10191 422.19204,265.08944 441.65877,242.0093 440.72411,238.50462 446.3241,239.03233 447.24184,236.7949 447.41006,236.3848 446.25736,237.03091 445.75862,236.99587 445.27635,236.96197 444.84722,236.47669 444.38254,236.59396 443.80634,236.73935 443.24444,239.0745 443.04829,239.6875 440.97767,245.78114 440.23525,252.08282 440.47438,258.4117 441.74314,264.99419 444.74858,268.07909 453.04604,267.10786 454.24554,266.96746 455.33447,266.42134 456.47868,266.07808 464.63861,263.02192 471.56761,258.11976 478.54322,253.43794 486.71601,247.92075 494.08417,241.5698 502.446,236.26987 496.4908,234.62517 507.65013,235.09652 506.30743,235.21277 505.15666,235.31239 503.89031,234.86549 502.83906,235.28485 499.96498,236.43139 497.78566,242.91187 497.21443,243.94266 495.37709,247.25816 493.34925,250.49113 491.41666,253.76538 488.54871,258.26325 485.6638,262.75297 482.81281,267.25902 473.42155,282.10203 470.03429,287.31817 461.22204,302.79186 451.03059,320.68728 441.61881,338.91808 431.61286,356.89319 429.06928,362.17068 426.3256,367.37847 423.98212,372.72566 421.12942,379.23472 409.85556,400.25126 432.46155,396.01208 437.53358,395.06095 440.48781,390.27465 444.23402,387.15082 450.96863,381.53506 457.33222,375.59178 463.88132,369.81227 497.86031,334.27776 476.01571,357.35932 512.05336,318.61785 521.35396,308.61945 530.83877,298.74956 539.99444,288.65035 561.69858,264.70948 582.3607,240.05838 602.96099,215.39717 581.72427,213.50593 621.01046,203.35556 615.48247,198.81756 613.38362,197.09456 609.52979,197.86562 606.82677,198.7441 604.70795,199.43272 603.49229,201.46156 602.26319,203.11382 598.26207,208.49241 592.93784,219.26995 590.03223,224.80852 586.75064,232.5281 583.76393,238.43745 582.01867,246.47517 581.20515,250.22177 580.38668,256.33655 582.64494,260.1382 583.83782,262.14634 585.35004,264.32124 587.68613,265.30991 590.86172,266.65384 594.66739,266.23898 598.15803,266.70353 608.34774,264.38756 617.15321,259.12574 624.08367,252.31172 625.26837,250.88931 626.14805,250.91015 623.21608,251.50125 622.94095,251.5567 623.78209,251.49318 624.06308,251.5178 624.62098,251.5667 625.17361,251.6536 625.72888,251.7215 630.81704,251.58233 629.35858,252.0372 633.19136,250.76448 634.1183,250.45667 635.19729,250.3466 635.94302,249.77715 636.77831,249.13931 637.11949,248.13622 637.70773,247.31576 637.94063,247.19626 635.99879,244.32997 635.76591,244.44947 V 244.44947 C 634.61248,244.15656 633.49744,243.70348 632.30564,243.57077 631.49804,243.48084 630.69047,243.77537 629.87656,243.79367 629.18538,243.80921 628.49417,243.73901 627.80708,243.67188 627.51098,243.64294 628.40298,243.67648 628.70093,243.67879 626.87326,243.70987 627.84825,243.76668 625.78255,243.4374 622.01161,243.36968 619.00935,244.01549 615.74842,245.58143 608.61515,249.05765 602.09908,253.54264 594.40601,256.10436 594.9719,256.71298 595.83976,257.18176 596.10369,257.93022 596.29653,258.47702 595.38731,260.12637 595.63787,259.59757 596.03312,258.76338 596.16648,257.84865 596.54101,257.00726 600.5347,248.03554 605.82937,239.53863 609.70677,230.52219 612.5357,223.55242 617.13126,213.50827 618.21008,205.99947 618.74879,202.25009 620.39943,197.89113 618.14096,194.66391 607.85992,179.97301 587.28173,194.5405 578.1123,199.72181 570.74195,205.28478 563.03521,210.52719 556.00125,216.41074 537.31092,232.04426 518.16761,251.03083 502.4733,268.82027 493.37337,279.13502 484.9031,289.86406 476.49147,300.61216 468.82936,310.40252 461.38667,320.32814 454.26302,330.42171 448.12676,339.11623 442.57166,348.11138 436.72599,356.95623 433.14071,364.259 429.07538,371.39711 425.97013,378.86456 424.49686,382.40743 421.47465,386.36175 423.03677,389.87568 424.62192,393.44136 429.44925,395.99132 433.80522,396.48912 436.34998,396.77995 437.69484,393.52163 439.21976,391.72508 445.13332,384.75816 452.21139,372.71216 456.69014,365.5681 459.93405,359.72064 463.11009,353.8443 466.4219,348.02573 469.79282,342.10333 473.38056,336.27547 476.73733,330.34696 489.87768,307.13939 501.96706,283.34602 508.65102,258.02369 509.94437,252.32461 515.04328,236.66965 510.09121,230.85242 506.03476,226.08727 500.10241,228.02723 495.5918,230.04742 486.81632,235.2049 478.95827,241.35086 471.16711,247.57165 465.22713,252.13641 458.96726,256.41746 452.01595,259.77249 451.346,260.01981 450.43234,260.00115 450.00609,260.51444 449.78121,260.78526 452.02097,261.1933 450.50313,261.75272 449.33918,262.18171 449.4692,257.73106 449.21937,258.19715 448.98283,252.21461 450.47646,246.38036 451.11588,240.44323 451.18007,237.60427 451.65268,232.88813 447.64345,231.48137 442.95039,229.83466 435.967,234.05582 432.49806,235.90046 429.91756,237.65368 427.22065,239.28435 424.75658,241.16012 417.17717,246.92996 410.43213,253.24624 403.84201,259.87281 390.09525,273.69563 377.72551,288.4862 366.24993,303.7882 348.55953,328.48826 330.46285,353.31175 318.03969,380.44417 314.75087,388.71266 314.43844,383.88621 323.08349,389.23887 323.67027,389.60218 323.53854,391.10056 324.19827,390.84933 325.50401,390.35207 325.97004,388.89996 326.72948,387.85037 328.24059,385.76192 329.6354,383.61023 331.00114,381.44728 333.05862,378.18878 334.99856,374.87511 336.99729,371.58903 353.53854,342.85419 368.61647,313.47428 382.33179,283.63465 386.18141,274.0377 390.95275,264.16184 392.21101,253.94275 392.54785,251.20699 392.95497,245.66389 389.59855,243.56223 387.9848,242.55175 385.6691,243.03327 383.70437,242.76877 382.26475,243.1935 380.74981,243.45957 379.3855,244.04293 370.18956,247.97501 363.71944,255.35141 356.23818,261.16352 353.58516,263.07842 352.98665,263.60391 350.25377,265.24303 349.49798,265.69633 348.73737,266.14841 347.9314,266.5307 347.37727,266.79352 346.65897,266.80686 346.18735,267.17177 346.03581,267.28902 346.45422,267.43752 346.58766,267.57041 346.33835,267.66233 346.08906,267.75427 345.83976,267.8462 342.80192,267.18837 348.36465,257.31909 348.95719,255.90194 350.6125,252.80608 351.46305,251.23713 353.07455,248.13736 353.65186,247.02693 355.02711,245.99949 354.78758,244.79866 353.59978,238.84365 351.56985,239.53305 348.31346,241.37205 337.47404,249.99582 329.0531,260.50313 319.67108,270.27502 313.29669,276.88168 307.0309,284.31134 297.41138,287.40822 297.67536,288.24802 297.99931,288.52127 295.92287,288.06067 292.14077,287.22169 290.56745,282.56731 289.2409,279.98907 288.79625,278.55362 288.22693,277.14308 287.90698,275.6827 285.07922,262.77544 287.84776,249.48407 291.46557,236.94545 294.64769,226.63771 295.00802,224.51266 299.36473,214.37198 306.29515,198.24072 315.25105,182.78713 323.73239,167.2545 330.27364,156.06747 338.21765,142.49281 348.14222,133.1897 349.06992,132.32008 350.18453,131.61704 351.2057,130.83071 352.28643,130.27171 354.47717,128.57578 355.99464,128.83003 359.75143,129.45945 356.53184,134.97113 356.0704,135.98555 342.05437,160.78263 323.95037,183.61734 307.97864,207.45559 293.29517,228.36678 279.49553,250.01442 260.75608,268.4583 256.43776,272.22651 256.14443,272.76315 251.57833,275.79199 250.41572,276.56319 249.21225,277.29043 247.97095,277.96238 247.13967,278.4124 246.03399,278.52473 245.3715,279.15197 243.85357,280.5891 246.93873,280.03556 244.99298,280.2693 243.41907,275.20052 245.64832,269.76927 244.80063,264.60978 244.65717,263.78959 244.92194,262.82584 244.37026,262.14923 243.51751,261.10342 242.24527,260.26482 240.87437,259.79459 238.41516,258.95105 232.19137,264.11291 230.64065,265.08734 222.42502,271.49887 214.30268,278.1916 204.48028,282.7362 203.10043,283.27681 201.72058,283.81743 200.34071,284.35805 199.11453,284.75564 197.85912,285.09064 196.66219,285.55083 194.90857,286.22504 196.2059,286.5256 193.65645,286.71484 193.30054,286.74128 192.81862,286.67391 192.6473,286.40117 192.30882,285.86226 192.42671,285.18798 192.31642,284.58138 194.18586,273.7947 200.18789,263.71599 200.24362,252.64476 199.85237,250.93397 200.15366,248.97977 199.06987,247.51238 190.91649,236.47305 165.73764,253.34898 158.62803,257.00527 153.94665,259.91794 149.12991,262.67252 144.58391,265.74327 134.71079,272.4124 124.85445,280.079 116.04996,287.80381 112.32943,291.06813 108.86789,294.54866 105.30782,297.9458 102.9412,300.20409 100.37845,302.32524 98.270241,304.76975 97.362885,305.82186 96.984868,307.15101 96.342186,308.34161 96.2244,308.97277 95.500613,310.71293 95.98886,310.23509 96.750202,309.48999 96.836381,308.38233 97.250502,307.45267 98.045315,305.66839 98.854035,303.88856 99.615611,302.09333 102.88313,294.3909 102.11257,295.62939 105.68002,287.71309 106.8492,285.11864 108.1004,282.55276 109.3106,279.97261 118.21969,261.28149 127.70205,242.77567 139.53823,225.32022 152.24539,207.7986 164.53095,189.97621 178.81403,173.38015 182.21736,169.96594 183.31128,168.48898 187.18163,165.8356 188.12341,165.18993 189.2256,164.74134 190.20111,164.13477 190.49092,163.95456 190.61629,163.55072 190.96405,163.48365 192.18285,163.24857 193.75988,163.82871 194.85909,164.13288 200.19442,166.50568 202.02642,166.20841 197.68353,171.3329 177.33534,193.58084 156.65218,215.6112 137.36708,238.57652 132.79107,244.10007 118.22004,261.91814 112.71537,267.73739 100.94097,280.18471 86.797532,290.92666 71.720952,300.21955 68.63522,301.85447 65.658397,303.65627 62.463745,305.12426 54.549157,308.7611 52.617725,308.72004 44.223722,311.1647 36.507757,313.4119 28.778294,315.74817 21.355632,318.65945 20.800941,318.86846 24.197551,325.69493 24.752241,325.48592 Z M 51.203148,60.110708 C 70.337475,53.083554 87.590044,42.588377 107.33923,36.756725 111.4648,35.5385 115.73226,34.720089 119.92879,33.701771 130.23249,32.061317 132.10011,31.30327 142.36649,31.386559 144.44593,31.403428 146.50834,31.729109 148.5674,31.982322 155.50267,32.835175 160.49461,33.541023 167.19553,35.23257 170.20171,35.991435 173.12714,36.974374 176.09294,37.845277 189.01831,41.706123 202.51589,45.593223 213.76973,52.575041 215.41011,53.592723 216.8667,54.817887 218.41517,55.939311 219.33411,57.097933 220.48034,58.142536 221.17198,59.41518 225.56115,67.49133 216.53429,74.566119 210.71728,79.511803 191.52415,93.362581 171.69738,106.61051 150.85609,118.53139 138.60261,124.9615 125.39254,130.14504 111.23247,132.40016 95.72118,134.87049 108.32993,131.5726 97.74736,134.61092 95.250228,134.87187 92.753085,135.13282 90.255953,135.39375 89.752253,135.22539 87.016033,141.42411 87.519711,141.59248 V 141.59248 C 89.903533,142.4408 92.287344,143.2891 94.671176,144.1374 98.967996,144.7368 103.21594,145.73727 107.56164,145.9356 111.06406,146.09544 114.57535,145.62125 118.0497,145.20437 134.12459,143.27556 149.08602,137.43654 163.06744,130.49734 166.81008,128.49978 170.61541,126.58853 174.29538,124.50466 192.66952,114.09984 209.94561,101.92913 223.94163,87.17842 228.18387,82.005073 230.77715,79.562434 233.43327,73.700768 236.35679,67.248974 236.60236,60.297592 233.32156,53.884607 232.27334,51.835648 230.6067,50.071511 229.24927,48.164963 227.39443,46.527928 225.70213,44.738186 223.68474,43.253856 212.21032,34.811365 197.27616,31.391465 183.79411,26.237752 173.98784,23.382105 164.00687,19.846505 153.69107,18.636123 139.5329,16.974901 125.42051,17.261436 111.46747,19.959093 106.786,21.215666 102.01504,22.243067 97.423073,23.728812 80.312235,29.265058 63.754127,37.816288 50.437624,48.723089 48.272671,50.496283 46.405029,52.525678 44.388732,54.426971 43.926895,54.846289 50.741311,60.530027 51.203148,60.110708 Z M 113.62077,28.765137 C 110.56718,32.591247 107.19909,36.241128 104.45998,40.243466 96.059491,52.518113 84.205696,74.247424 78.1467,86.292468 72.308369,97.898849 66.543705,109.54693 61.483104,121.42663 52.164787,143.30126 40.185945,178.67809 32.430015,200.79971 23.82632,227.21076 14.591287,252.31081 9.6392079,279.47402 5.6385365,301.41856 6.6461937,309.64769 7.1154741,329.97711 6.7804003,331.20956 26.809108,335.33325 27.144183,334.1008 V 334.1008 C 40.128014,316.24494 45.554551,310.20131 55.5376,288.73917 67.156485,263.76023 74.623797,237.10157 82.837468,211.22939 83.689827,208.43483 105.96013,135.50958 107.00427,131.73016 110.32625,119.70565 113.04304,107.56048 115.98599,95.461434 117.62848,88.708902 125.5312,55.983212 127.22778,46.426433 128.00442,42.05164 128.24304,37.61725 128.75067,33.212657 129.11207,32.281656 113.98216,27.834133 113.62077,28.765137 Z" />
  </g>
</svg>
